PathFileType	4	(X/Y/Z)	/Users/niels/Desktop/University/Third Semester/Perception and Action/Exam/Gymnastics Motion Tracking/Code for Gym Tracking/Scripts/Analyzed Data/Start Salto/st_salto_good_id1_1_Sports2D/st_salto_good_id1_1_Sports2D_px_person00.trc
DataRate	CameraRate	NumFrames	NumMarkers	Units	OrigDataRate	OrigDataStartFrame	OrigNumFrames
29.763779527559056	29.763779527559056	11	22	m	29.763779527559056	111	127
Frame#	Time	Hip			RHip			RKnee			RAnkle			RBigToe			RSmallToe			RHeel			LHip			LKnee			LAnkle			LBigToe			LSmallToe			LHeel			Neck			Head			Nose			RShoulder			RElbow			RWrist			LShoulder			LElbow			LWrist		
		X1	Y1	Z1	X2	Y2	Z2	X3	Y3	Z3	X4	Y4	Z4	X5	Y5	Z5	X6	Y6	Z6	X7	Y7	Z7	X8	Y8	Z8	X9	Y9	Z9	X10	Y10	Z10	X11	Y11	Z11	X12	Y12	Z12	X13	Y13	Z13	X14	Y14	Z14	X15	Y15	Z15	X16	Y16	Z16	X17	Y17	Z17	X18	Y18	Z18	X19	Y19	Z19	X20	Y20	Z20	X21	Y21	Z21	X22	Y22	Z22
111	3.7293650793650794	1.6270676883821895	-0.5207200229930852	0.0	1.6497999567587298	-0.5116753587642927	0.0	1.734655737234906	-0.6473812395973243	0.0	1.734720701377158	-0.7941539926520303	0.0	1.7859386892281208	-0.8061146743417549	0.0	1.7799272738119034	-0.8117366370629373	0.0	1.723626514190341	-0.8072531147841875	0.0	1.6034415497843943	-0.5279843982564704	0.0	1.6667719228532114	-0.6540189939186799	0.0	1.5850728923298698	-0.7494812983940081	0.0	1.5962844824881317	-0.7936502678375525	0.0	1.5832639400878885	-0.7912347704542559	0.0	1.5683155806522917	-0.758347054548514	0.0	1.567809569026689	-0.33669116387240444	0.0	1.566690810246484	-0.25426388556965634	0.0	1.6032808164481764	-0.2948917165625769	0.0	1.61179095604222	-0.3435617695138885	0.0	1.708401850960884	-0.3551382904477269	0.0	1.726633547601811	-0.2919877635959956	0.0	1.5389833522608234	-0.3870610993601693	0.0	1.5379891027000436	-0.468321393689498	0.0	1.5754108758481444	-0.4565202925790868	0.0
112	3.762962962962963	1.6465104581295844	-0.5181917007257166	0.0	1.670124360640554	-0.5097727809835033	0.0	1.7577117609857118	-0.6428625641304379	0.0	1.7390907836543374	-0.7882270206783973	0.0	1.7887115901566715	-0.8055114610384382	0.0	1.781673750092387	-0.8100835213192398	0.0	1.7255692544629515	-0.8010962839722632	0.0	1.6233788194534424	-0.5263320673195923	0.0	1.6887403282859228	-0.6492574915300685	0.0	1.5957142699100775	-0.7346860862760983	0.0	1.6002598945389397	-0.787524582492486	0.0	1.589131789773808	-0.7829544653391924	0.0	1.5766660430785384	-0.740693226765396	0.0	1.5928360457692297	-0.33106494626540983	0.0	1.594608257000194	-0.24965581594953148	0.0	1.630328359891511	-0.29198987675599475	0.0	1.6364349023264653	-0.34062945394657607	0.0	1.7336336598819169	-0.3635198625270376	0.0	1.7639610788049185	-0.30291943147870903	0.0	1.561405695466683	-0.38095016874535725	0.0	1.5641228008063202	-0.4689328851866953	0.0	1.6005738059242203	-0.4755551018972382	0.0
113	3.7965608465608467	1.6689154673610236	-0.5129389601158485	0.0	1.693686315937937	-0.5051616221016245	0.0	1.7823193237023214	-0.6369742231996613	0.0	1.7444282367662693	-0.7797695680644346	0.0	1.791773537085643	-0.8040382443489701	0.0	1.7841610191934643	-0.8073043522098328	0.0	1.7284250672053523	-0.7924819986218283	0.0	1.6462403879066096	-0.5221138502484878	0.0	1.7144582512384166	-0.6423316437674443	0.0	1.613025577698132	-0.7199725454396726	0.0	1.6121002092547188	-0.7782207825942848	0.0	1.6021264053848796	-0.771893740357234	0.0	1.5920608364138547	-0.723962182557652	0.0	1.6199041102021179	-0.3239606936830254	0.0	1.626216438770126	-0.2428022494570235	0.0	1.659978127551631	-0.28750921103988764	0.0	1.663190607084156	-0.33505831022933125	0.0	1.7594489506544069	-0.36855418758028113	0.0	1.7993797868033472	-0.31246676263427386	0.0	1.5849632322163654	-0.3727553492192478	0.0	1.5900324598795275	-0.465778131534753	0.0	1.6240586452314778	-0.4918001779922763	0.0
114	3.8301587301587303	1.6949165754391018	-0.5048271192582713	0.0	1.7209636392643886	-0.49786359343534997	0.0	1.8066629782234223	-0.6306659819452489	0.0	1.751105580803407	-0.7697188219774233	0.0	1.7946356327316766	-0.8018194441010027	0.0	1.7871681883994543	-0.8036670675162142	0.0	1.7328759451986089	-0.7820418267153616	0.0	1.672634946239295	-0.5150387823686546	0.0	1.7440442638062352	-0.6330104216747242	0.0	1.6391198537772	-0.7071941654872166	0.0	1.6350836654382672	-0.7671266140865156	0.0	1.6253417127527596	-0.7597331008541405	0.0	1.6170336935387153	-0.7103902464051582	0.0	1.6494694182983372	-0.3156382984569244	0.0	1.6614263643587464	-0.23393320407355297	0.0	1.6921707278765599	-0.28150608213921274	0.0	1.6926036614083044	-0.32667699086846974	0.0	1.78611445260093	-0.36962537117076005	0.0	1.8312194182119506	-0.32008145315015585	0.0	1.6105116401347062	-0.36281770700599714	0.0	1.615118950551188	-0.4589281277907039	0.0	1.6452296844675909	-0.5022287931195571	0.0
115	3.863756613756614	1.7248887574126717	-0.494124305575545	0.0	1.7522306040096278	-0.48836682182965085	0.0	1.829626435108423	-0.6244063428488694	0.0	1.7596188414682108	-0.7588678357372769	0.0	1.7974469913535411	-0.7986023478491376	0.0	1.7909289923470815	-0.7991869324230685	0.0	1.7396899156813848	-0.770350854370424	0.0	1.7028991941075997	-0.505219218137877	0.0	1.7771425919249033	-0.6213339183628633	0.0	1.6751154911878596	-0.6979597047520626	0.0	1.6709818824752265	-0.7560325960013923	0.0	1.6606794571041548	-0.7483921368119018	0.0	1.65316171506659	-0.7014809194802424	0.0	1.6822039115588243	-0.30644983824321775	0.0	1.699898870201928	-0.223546698090845	0.0	1.7268627804204977	-0.2739529493162975	0.0	1.7253454159761097	-0.3155963743263961	0.0	1.8134950085145387	-0.3668230476008877	0.0	1.8579364712520543	-0.3261430770489766	0.0	1.6392283082451267	-0.35137278138384137	0.0	1.63952167268871	-0.4488697127559847	0.0	1.6645619197288124	-0.5052397137467433	0.0
116	3.8973544973544976	1.7584334618348847	-0.48162833156324336	0.0	1.7869041996932997	-0.47760801346693615	0.0	1.8507673041485921	-0.6182479826471793	0.0	1.7703470321351733	-0.7476178427531425	0.0	1.8010270953063985	-0.7938170772176599	0.0	1.7961475511687377	-0.7935902234182239	0.0	1.7493816700345093	-0.7577287558816097	0.0	1.7366645706205848	-0.49333444292418166	0.0	1.8124255647570857	-0.6080232555414439	0.0	1.7199381160394114	-0.6931256557715809	0.0	1.7184897357435263	-0.7463895729525867	0.0	1.7071327300039738	-0.7391535033200968	0.0	1.699735571415067	-0.6974805440620548	0.0	1.7185060220395523	-0.29685084330648476	0.0	1.7406779467435096	-0.21262019674150162	0.0	1.7636473651701197	-0.2649180150734263	0.0	1.7614684023303189	-0.3025689475268769	0.0	1.8402967783084654	-0.361190695558764	0.0	1.8776249372307308	-0.3324003580982482	0.0	1.6720641492504817	-0.33866317017215725	0.0	1.663937891867216	-0.4364249471608257	0.0	1.6831915576583751	-0.5013297895519655	0.0
117	3.930952380952381	1.793961357264372	-0.4687765285117356	0.0	1.8228960913136012	-0.46698170638295317	0.0	1.8699065055650959	-0.6121504085757202	0.0	1.7833941986567152	-0.7359225960612223	0.0	1.80657552919643	-0.7867839035509411	0.0	1.8036732510554228	-0.7863751582687768	0.0	1.7620692886526121	-0.7441855510892605	0.0	1.7726045320924173	-0.4807988041454532	0.0	1.8472099401732351	-0.594753978451249	0.0	1.769296270501989	-0.6922508582435023	0.0	1.772052277472712	-0.7389215508095733	0.0	1.7595782064301855	-0.7322192668383432	0.0	1.7524580553638451	-0.6969925203195187	0.0	1.7579010625382172	-0.28745920442002193	0.0	1.781956054989997	-0.20276004847198176	0.0	1.8012714398921106	-0.25492752918240735	0.0	1.7995814334921905	-0.2892533812033131	0.0	1.863568254326564	-0.3548411762814677	0.0	1.8878149361309784	-0.3416039215197201	0.0	1.7091970004429797	-0.3252629408543569	0.0	1.6892929195414037	-0.42260657177513417	0.0	1.7021082621376338	-0.4924686209808894	0.0
118	3.964550264550265	1.8289029951623026	-0.45742845513657243	0.0	1.856710866969548	-0.45814212054771636	0.0	1.8866999077044315	-0.606197410780208	0.0	1.7986638302005775	-0.7234886448975506	0.0	1.8151558168762156	-0.7770484117316361	0.0	1.814047260494033	-0.7769987328453443	0.0	1.7777009588733617	-0.7295962755736473	0.0	1.8086203814431645	-0.46954840976058215	0.0	1.8777186242366233	-0.5837455012400506	0.0	1.8159839963776159	-0.6933148397923274	0.0	1.8224753552851707	-0.7337187959405574	0.0	1.8095967254516863	-0.727010868500819	0.0	1.8035529591129082	-0.6970196316920435	0.0	1.79878805676949	-0.2790895266596456	0.0	1.821400085495414	-0.19591927993093852	0.0	1.8375216071811378	-0.24505960339473037	0.0	1.8366652986663174	-0.27803407016157233	0.0	1.87943863833306	-0.35042577019746574	0.0	1.8865443646575895	-0.3560080139412066	0.0	1.7497865231920295	-0.31237162102067295	0.0	1.7164736084402934	-0.40856892548655693	0.0	1.7219330782986473	-0.48105393364478605	0.0
119	3.9981481481481485	1.8604691767475428	-0.4492394616732489	0.0	1.8846260582198715	-0.4524467974674741	0.0	1.900433348468165	-0.6004061734978777	0.0	1.8160144881206097	-0.7101104302621012	0.0	1.8272475229196128	-0.7647222157447962	0.0	1.827288668823252	-0.7651542517813479	0.0	1.79626975071562	-0.7140108183810532	0.0	1.8422819130623216	-0.461337902360891	0.0	1.9003759204398356	-0.5764662151516613	0.0	1.8526332528780356	-0.6934559200863354	0.0	1.8608572695763537	-0.7305143985055783	0.0	1.849356078360458	-0.7228658559233759	0.0	1.844700160822353	-0.6944224656708327	0.0	1.838725477213326	-0.27249132659537634	0.0	1.856801449672127	-0.19384912109479208	0.0	1.869710739405492	-0.23651956037062744	0.0	1.8689389869755013	-0.2714587163489521	0.0	1.885511437657155	-0.34975295882175916	0.0	1.874537277568827	-0.3755874009841764	0.0	1.792010738532362	-0.30186206452188646	0.0	1.7461126774343125	-0.3955577660918966	0.0	1.7430920980805493	-0.4691545972928226	0.0
120	4.031746031746032	1.8863073133855084	-0.4451761486949187	0.0	1.904300872598975	-0.450395617804959	0.0	1.910241729566725	-0.5943776564178639	0.0	1.8352376119869633	-0.6959191432409955	0.0	1.8424743344313024	-0.7506509174154472	0.0	1.8428915923492957	-0.7511096351392266	0.0	1.8175574841605016	-0.6978795482193808	0.0	1.8710990986737066	-0.45700368052302537	0.0	1.913588754852694	-0.5725035647285455	0.0	1.8759181220533736	-0.690446688590561	0.0	1.8840817249134472	-0.7286460112657546	0.0	1.875742812957181	-0.7194856710439586	0.0	1.8716343741161892	-0.6880200472898363	0.0	1.8751135245649522	-0.26768306419561677	0.0	1.8867313254254858	-0.19768191992860168	0.0	1.8957379530467169	-0.23005695810087656	0.0	1.8936139724281278	-0.2715660955404041	0.0	1.883656345882089	-0.3527007846968769	0.0	1.856900847064996	-0.39743318015442064	0.0	1.833204871704653	-0.2959823292363514	0.0	1.7783105682712432	-0.3847987339765559	0.0	1.7658086389859233	-0.4582291665289844	0.0
121	4.065343915343916	1.9051315266814037	-0.4456333145805652	0.0	1.9156463496593892	-0.4514827747852522	0.0	1.9157429700553756	-0.5873402700348427	0.0	1.855865327363085	-0.6814742327860034	0.0	1.8595962096797076	-0.7363651892659047	0.0	1.8598884862320308	-0.7360036079409816	0.0	1.840692149442058	-0.6821022884335913	0.0	1.8928434343944653	-0.4561874307949248	0.0	1.9185289613416012	-0.5699042522446602	0.0	1.888315968935814	-0.6837375271521168	0.0	1.8962215735483816	-0.7268679269151244	0.0	1.8905915116518777	-0.7169673316702968	0.0	1.8864083643453136	-0.6790387040183837	0.0	1.9059471052286476	-0.26323113950022603	0.0	1.911019850196993	-0.20767586263769017	0.0	1.9151947588792493	-0.22572690375410007	0.0	1.9104044130671378	-0.27919386507922656	0.0	1.8803642981195219	-0.3577754813318599	0.0	1.8418923611521913	-0.4170975059494212	0.0	1.8701778573864651	-0.2967218290280145	0.0	1.8123294938114762	-0.3773449227505554	0.0	1.7899341641927984	-0.4492335760809094	0.0
